<?xml version="1.0" encoding="UTF-8"?>
<svg width="18px" height="16px" viewBox="0 0 18 16" version="1.1" xmlns="http://www.w3.org/2000/svg" xmlns:xlink="http://www.w3.org/1999/xlink">
    <!-- Generator: Sketch 58 (84663) - https://sketch.com -->
    <title>Icons/Jersey</title>
    <desc>Created with Sketch.</desc>
    <g id="Atoms" stroke="none" stroke-width="1" fill="none" fill-rule="evenodd" stroke-linecap="round" stroke-linejoin="round">
        <g id="Icons" transform="translate(-723.000000, -210.000000)" stroke="#FFFFFF">
            <g id="Icon/Jersey" transform="translate(720.000000, 206.000000)">
                <path d="M14.4743,19.1667 L15.6633,18.9047 C15.9143,18.8507 16.0933,18.6277 16.0933,18.3707 L16.0933,10.1747 C16.0933,10.0667 16.2083,10.0007 16.3013,10.0547 L17.8603,10.9577 C18.4003,11.2707 19.0913,11.0127 19.2933,10.4217 L19.9473,8.5157 C20.0883,8.0997 19.9403,7.6397 19.5813,7.3857 L17.0813,5.6167 C16.5893,5.2697 16.0403,5.0087 15.4593,4.8487 L14.2323,4.5077 C14.1053,4.4727 13.9873,4.5637 13.9703,4.6947 C13.8443,5.6717 13.0103,6.4267 11.9993,6.4267 C10.9903,6.4267 10.1553,5.6717 10.0303,4.6947 C10.0133,4.5637 9.8953,4.4727 9.7673,4.5077 L8.5393,4.8487 C7.9593,5.0087 7.4113,5.2697 6.9183,5.6167 L4.4183,7.3857 C4.0603,7.6397 3.9113,8.0997 4.0533,8.5157 L4.7053,10.4217 C4.9093,11.0127 5.6003,11.2707 6.1403,10.9577 L7.6993,10.0547 C7.7903,10.0007 7.9073,10.0667 7.9073,10.1747 L7.9073,18.3707 C7.9073,18.6277 8.0853,18.8507 8.3363,18.9047 L9.5263,19.1667 C11.1563,19.5247 12.8443,19.5247 14.4743,19.1667 Z" id="Jersey1"></path>
            </g>
        </g>
    </g>
</svg>