<?xml version="1.0" encoding="UTF-8"?>
<svg width="18px" height="18px" viewBox="0 0 18 18" version="1.1" xmlns="http://www.w3.org/2000/svg" xmlns:xlink="http://www.w3.org/1999/xlink">
    <!-- Generator: Sketch 58 (84663) - https://sketch.com -->
    <title>Icons/Cog</title>
    <desc>Created with Sketch.</desc>
    <g id="Atoms" stroke="none" stroke-width="1" fill="none" fill-rule="evenodd" stroke-linecap="round" stroke-linejoin="round">
        <g id="Icons" transform="translate(-643.000000, -209.000000)" stroke="#FFFFFF">
            <g id="Icon/Cog" transform="translate(640.000000, 206.000000)">
                <path d="M14.3993,11.9996 C14.3993,10.6746 13.3253,9.6006 12.0003,9.6006 C10.6743,9.6006 9.6003,10.6746 9.6003,11.9996 C9.6003,13.3246 10.6743,14.3996 12.0003,14.3996 C13.3253,14.3996 14.3993,13.3246 14.3993,11.9996 Z" id="Cog2"></path>
                <path d="M10.455,5.0905 L10.455,5.0905 C10.973,3.6365 13.028,3.6365 13.545,5.0905 C13.87,6.0055 14.916,6.4385 15.794,6.0215 C17.187,5.3595 18.641,6.8135 17.978,8.2065 C17.561,9.0845 17.994,10.1295 18.91,10.4555 C20.363,10.9725 20.363,13.0275 18.91,13.5445 C17.994,13.8705 17.561,14.9155 17.978,15.7935 C18.641,17.1875 17.187,18.6405 15.794,17.9785 C14.916,17.5615 13.87,17.9945 13.545,18.9095 C13.028,20.3635 10.973,20.3635 10.455,18.9095 C10.13,17.9945 9.084,17.5615 8.207,17.9785 L8.206,17.9785 C6.813,18.6405 5.359,17.1875 6.021,15.7935 C6.438,14.9155 6.006,13.8705 5.091,13.5445 C3.637,13.0275 3.637,10.9725 5.091,10.4555 C6.006,10.1295 6.438,9.0845 6.021,8.2065 C5.359,6.8135 6.813,5.3595 8.206,6.0215 L8.207,6.0215 C9.084,6.4385 10.13,6.0055 10.455,5.0905 Z" id="Cog1"></path>
            </g>
        </g>
    </g>
</svg>